<svg width="34" height="34" viewBox="0 0 34 34" fill="none" xmlns="http://www.w3.org/2000/svg">
<path d="M30.2457 15.725H17.2549V19.5925H26.4774C26.0099 24.99 21.5191 27.2992 17.2691 27.2992C11.8432 27.2992 7.08323 23.0209 7.08323 17C7.08323 11.1917 11.6166 6.70087 17.2832 6.70087C21.6607 6.70087 24.2249 9.49171 24.2249 9.49171L26.9166 6.68671C26.9166 6.68671 23.4599 2.83337 17.1416 2.83337C9.0949 2.83337 2.87573 9.63337 2.87573 17C2.87573 24.1542 8.72657 31.1667 17.3541 31.1667C24.9332 31.1667 30.4582 25.9675 30.4582 18.2892C30.4582 16.66 30.2457 15.725 30.2457 15.725Z" fill="#10E3C2"/>
</svg>
